<?xml version="1.0" encoding="UTF-8"?><svg xmlns="http://www.w3.org/2000/svg" xmlns:xlink="http://www.w3.org/1999/xlink" clip-rule="evenodd" stroke-miterlimit="4.00" viewBox="0 0 335 156"><desc>SVG generated by Keynote</desc><defs></defs><g transform="matrix(1.00, 0.00, -0.00, -1.00, 0.0, 156.0)"><text xml:space="preserve" font-family="LucidaGrande" font-size="26.6" fill="#0BD0D9" transform="matrix(1.00, 0.00, -0.00, -1.00, 0.0, 132.7)">●</text><text xml:space="preserve" font-family="Palatino-Roman" font-size="28.0" fill="#000000" transform="matrix(1.00, 0.00, -0.00, -1.00, 15.0, 132.0)">S</text><text xml:space="preserve" font-family="Palatino-Roman" font-size="28.0" fill="#000000" transform="matrix(1.00, 0.00, -0.00, -1.00, 29.7, 132.0)">h</text><text xml:space="preserve" font-family="Palatino-Roman" font-size="28.0" fill="#000000" transform="matrix(1.00, 0.00, -0.00, -1.00, 46.0, 132.0)">i</text><text xml:space="preserve" font-family="Palatino-Roman" font-size="28.0" fill="#000000" transform="matrix(1.00, 0.00, -0.00, -1.00, 54.1, 132.0)">v</text><text xml:space="preserve" font-family="Palatino-Roman" font-size="28.0" fill="#000000" transform="matrix(1.00, 0.00, -0.00, -1.00, 70.0, 132.0)">a</text><text xml:space="preserve" font-family="Palatino-Roman" font-size="28.0" fill="#000000" transform="matrix(1.00, 0.00, -0.00, -1.00, 84.0, 132.0)">m</text><text xml:space="preserve" font-family="Palatino-Roman" font-size="28.0" fill="#000000" transform="matrix(1.00, 0.00, -0.00, -1.00, 108.7, 132.0)"> </text><text xml:space="preserve" font-family="Palatino-Roman" font-size="28.0" fill="#000000" transform="matrix(1.00, 0.00, -0.00, -1.00, 115.7, 132.0)">V</text><text xml:space="preserve" font-family="Palatino-Roman" font-size="28.0" fill="#000000" transform="matrix(1.00, 0.00, -0.00, -1.00, 133.3, 132.0)">y</text><text xml:space="preserve" font-family="Palatino-Roman" font-size="28.0" fill="#000000" transform="matrix(1.00, 0.00, -0.00, -1.00, 148.9, 132.0)">a</text><text xml:space="preserve" font-family="Palatino-Roman" font-size="28.0" fill="#000000" transform="matrix(1.00, 0.00, -0.00, -1.00, 162.9, 132.0)">s</text><text xml:space="preserve" font-family="Palatino-Roman" font-size="28.0" fill="#000000" transform="matrix(1.00, 0.00, -0.00, -1.00, 174.8, 132.0)"> </text><text xml:space="preserve" font-family="Palatino-Roman" font-size="28.0" fill="#000000" transform="matrix(1.00, 0.00, -0.00, -1.00, 181.8, 132.0)"> </text><text xml:space="preserve" font-family="Palatino-Roman" font-size="28.0" fill="#000000" transform="matrix(1.00, 0.00, -0.00, -1.00, 188.8, 132.0)">(</text><text xml:space="preserve" font-family="Palatino-Roman" font-size="28.0" fill="#000000" transform="matrix(1.00, 0.00, -0.00, -1.00, 198.1, 132.0)">2</text><text xml:space="preserve" font-family="Palatino-Roman" font-size="28.0" fill="#000000" transform="matrix(1.00, 0.00, -0.00, -1.00, 212.1, 132.0)">0</text><text xml:space="preserve" font-family="Palatino-Roman" font-size="28.0" fill="#000000" transform="matrix(1.00, 0.00, -0.00, -1.00, 226.1, 132.0)">1</text><text xml:space="preserve" font-family="Palatino-Roman" font-size="28.0" fill="#000000" transform="matrix(1.00, 0.00, -0.00, -1.00, 240.1, 132.0)">5</text><text xml:space="preserve" font-family="Palatino-Roman" font-size="28.0" fill="#000000" transform="matrix(1.00, 0.00, -0.00, -1.00, 254.1, 132.0)">0</text><text xml:space="preserve" font-family="Palatino-Roman" font-size="28.0" fill="#000000" transform="matrix(1.00, 0.00, -0.00, -1.00, 268.1, 132.0)">1</text><text xml:space="preserve" font-family="Palatino-Roman" font-size="28.0" fill="#000000" transform="matrix(1.00, 0.00, -0.00, -1.00, 280.6, 132.0)">1</text><text xml:space="preserve" font-family="Palatino-Roman" font-size="28.0" fill="#000000" transform="matrix(1.00, 0.00, -0.00, -1.00, 294.6, 132.0)">2</text><text xml:space="preserve" font-family="Palatino-Roman" font-size="28.0" fill="#000000" transform="matrix(1.00, 0.00, -0.00, -1.00, 308.6, 132.0)">2</text><text xml:space="preserve" font-family="Palatino-Roman" font-size="28.0" fill="#000000" transform="matrix(1.00, 0.00, -0.00, -1.00, 322.6, 132.0)">)</text><text xml:space="preserve" font-family="LucidaGrande" font-size="26.6" fill="#0BD0D9" transform="matrix(1.00, 0.00, -0.00, -1.00, 0.0, 91.3)">●</text><text xml:space="preserve" font-family="Palatino-Roman" font-size="28.0" fill="#000000" transform="matrix(1.00, 0.00, -0.00, -1.00, 15.0, 91.0)">U</text><text xml:space="preserve" font-family="Palatino-Roman" font-size="28.0" fill="#000000" transform="matrix(1.00, 0.00, -0.00, -1.00, 36.8, 91.0)">r</text><text xml:space="preserve" font-family="Palatino-Roman" font-size="28.0" fill="#000000" transform="matrix(1.00, 0.00, -0.00, -1.00, 47.8, 91.0)">v</text><text xml:space="preserve" font-family="Palatino-Roman" font-size="28.0" fill="#000000" transform="matrix(1.00, 0.00, -0.00, -1.00, 63.6, 91.0)">i</text><text xml:space="preserve" font-family="Palatino-Roman" font-size="28.0" fill="#000000" transform="matrix(1.00, 0.00, -0.00, -1.00, 71.8, 91.0)">s</text><text xml:space="preserve" font-family="Palatino-Roman" font-size="28.0" fill="#000000" transform="matrix(1.00, 0.00, -0.00, -1.00, 83.7, 91.0)">h</text><text xml:space="preserve" font-family="Palatino-Roman" font-size="28.0" fill="#000000" transform="matrix(1.00, 0.00, -0.00, -1.00, 100.0, 91.0)"> </text><text xml:space="preserve" font-family="Palatino-Roman" font-size="28.0" fill="#000000" transform="matrix(1.00, 0.00, -0.00, -1.00, 107.0, 91.0)">T</text><text xml:space="preserve" font-family="Palatino-Roman" font-size="28.0" fill="#000000" transform="matrix(1.00, 0.00, -0.00, -1.00, 121.5, 91.0)">a</text><text xml:space="preserve" font-family="Palatino-Roman" font-size="28.0" fill="#000000" transform="matrix(1.00, 0.00, -0.00, -1.00, 135.5, 91.0)">n</text><text xml:space="preserve" font-family="Palatino-Roman" font-size="28.0" fill="#000000" transform="matrix(1.00, 0.00, -0.00, -1.00, 151.8, 91.0)">k</text><text xml:space="preserve" font-family="Palatino-Roman" font-size="28.0" fill="#000000" transform="matrix(1.00, 0.00, -0.00, -1.00, 167.4, 91.0)"> </text><text xml:space="preserve" font-family="Palatino-Roman" font-size="28.0" fill="#000000" transform="matrix(1.00, 0.00, -0.00, -1.00, 174.4, 91.0)"> </text><text xml:space="preserve" font-family="Palatino-Roman" font-size="28.0" fill="#000000" transform="matrix(1.00, 0.00, -0.00, -1.00, 181.4, 91.0)"> </text><text xml:space="preserve" font-family="Palatino-Roman" font-size="28.0" fill="#000000" transform="matrix(1.00, 0.00, -0.00, -1.00, 188.4, 91.0)">(</text><text xml:space="preserve" font-family="Palatino-Roman" font-size="28.0" fill="#000000" transform="matrix(1.00, 0.00, -0.00, -1.00, 197.7, 91.0)">2</text><text xml:space="preserve" font-family="Palatino-Roman" font-size="28.0" fill="#000000" transform="matrix(1.00, 0.00, -0.00, -1.00, 211.7, 91.0)">0</text><text xml:space="preserve" font-family="Palatino-Roman" font-size="28.0" fill="#000000" transform="matrix(1.00, 0.00, -0.00, -1.00, 225.7, 91.0)">1</text><text xml:space="preserve" font-family="Palatino-Roman" font-size="28.0" fill="#000000" transform="matrix(1.00, 0.00, -0.00, -1.00, 239.7, 91.0)">5</text><text xml:space="preserve" font-family="Palatino-Roman" font-size="28.0" fill="#000000" transform="matrix(1.00, 0.00, -0.00, -1.00, 253.7, 91.0)">0</text><text xml:space="preserve" font-family="Palatino-Roman" font-size="28.0" fill="#000000" transform="matrix(1.00, 0.00, -0.00, -1.00, 267.7, 91.0)">1</text><text xml:space="preserve" font-family="Palatino-Roman" font-size="28.0" fill="#000000" transform="matrix(1.00, 0.00, -0.00, -1.00, 280.2, 91.0)">1</text><text xml:space="preserve" font-family="Palatino-Roman" font-size="28.0" fill="#000000" transform="matrix(1.00, 0.00, -0.00, -1.00, 294.2, 91.0)">0</text><text xml:space="preserve" font-family="Palatino-Roman" font-size="28.0" fill="#000000" transform="matrix(1.00, 0.00, -0.00, -1.00, 308.2, 91.0)">7</text><text xml:space="preserve" font-family="Palatino-Roman" font-size="28.0" fill="#000000" transform="matrix(1.00, 0.00, -0.00, -1.00, 322.2, 91.0)">)</text><text xml:space="preserve" font-family="LucidaGrande" font-size="26.6" fill="#0BD0D9" transform="matrix(1.00, 0.00, -0.00, -1.00, 0.0, 49.8)">●</text><text xml:space="preserve" font-family="Palatino-Roman" font-size="28.0" fill="#000000" transform="matrix(1.00, 0.00, -0.00, -1.00, 15.0, 49.0)">B</text><text xml:space="preserve" font-family="Palatino-Roman" font-size="28.0" fill="#000000" transform="matrix(1.00, 0.00, -0.00, -1.00, 32.1, 49.0)">h</text><text xml:space="preserve" font-family="Palatino-Roman" font-size="28.0" fill="#000000" transform="matrix(1.00, 0.00, -0.00, -1.00, 48.4, 49.0)">u</text><text xml:space="preserve" font-family="Palatino-Roman" font-size="28.0" fill="#000000" transform="matrix(1.00, 0.00, -0.00, -1.00, 65.3, 49.0)">m</text><text xml:space="preserve" font-family="Palatino-Roman" font-size="28.0" fill="#000000" transform="matrix(1.00, 0.00, -0.00, -1.00, 90.0, 49.0)">i</text><text xml:space="preserve" font-family="Palatino-Roman" font-size="28.0" fill="#000000" transform="matrix(1.00, 0.00, -0.00, -1.00, 98.1, 49.0)">t</text><text xml:space="preserve" font-family="Palatino-Roman" font-size="28.0" fill="#000000" transform="matrix(1.00, 0.00, -0.00, -1.00, 107.3, 49.0)"> </text><text xml:space="preserve" font-family="Palatino-Roman" font-size="28.0" fill="#000000" transform="matrix(1.00, 0.00, -0.00, -1.00, 114.3, 49.0)">S</text><text xml:space="preserve" font-family="Palatino-Roman" font-size="28.0" fill="#000000" transform="matrix(1.00, 0.00, -0.00, -1.00, 129.0, 49.0)">h</text><text xml:space="preserve" font-family="Palatino-Roman" font-size="28.0" fill="#000000" transform="matrix(1.00, 0.00, -0.00, -1.00, 145.3, 49.0)">a</text><text xml:space="preserve" font-family="Palatino-Roman" font-size="28.0" fill="#000000" transform="matrix(1.00, 0.00, -0.00, -1.00, 159.3, 49.0)">h</text><text xml:space="preserve" font-family="Palatino-Roman" font-size="28.0" fill="#000000" transform="matrix(1.00, 0.00, -0.00, -1.00, 175.6, 49.0)"> </text><text xml:space="preserve" font-family="Palatino-Roman" font-size="28.0" fill="#000000" transform="matrix(1.00, 0.00, -0.00, -1.00, 182.6, 49.0)">(</text><text xml:space="preserve" font-family="Palatino-Roman" font-size="28.0" fill="#000000" transform="matrix(1.00, 0.00, -0.00, -1.00, 191.9, 49.0)">2</text><text xml:space="preserve" font-family="Palatino-Roman" font-size="28.0" fill="#000000" transform="matrix(1.00, 0.00, -0.00, -1.00, 205.9, 49.0)">0</text><text xml:space="preserve" font-family="Palatino-Roman" font-size="28.0" fill="#000000" transform="matrix(1.00, 0.00, -0.00, -1.00, 219.9, 49.0)">1</text><text xml:space="preserve" font-family="Palatino-Roman" font-size="28.0" fill="#000000" transform="matrix(1.00, 0.00, -0.00, -1.00, 233.9, 49.0)">5</text><text xml:space="preserve" font-family="Palatino-Roman" font-size="28.0" fill="#000000" transform="matrix(1.00, 0.00, -0.00, -1.00, 247.9, 49.0)">0</text><text xml:space="preserve" font-family="Palatino-Roman" font-size="28.0" fill="#000000" transform="matrix(1.00, 0.00, -0.00, -1.00, 261.9, 49.0)">1</text><text xml:space="preserve" font-family="Palatino-Roman" font-size="28.0" fill="#000000" transform="matrix(1.00, 0.00, -0.00, -1.00, 275.9, 49.0)">0</text><text xml:space="preserve" font-family="Palatino-Roman" font-size="28.0" fill="#000000" transform="matrix(1.00, 0.00, -0.00, -1.00, 289.9, 49.0)">9</text><text xml:space="preserve" font-family="Palatino-Roman" font-size="28.0" fill="#000000" transform="matrix(1.00, 0.00, -0.00, -1.00, 303.9, 49.0)">3</text><text xml:space="preserve" font-family="Palatino-Roman" font-size="28.0" fill="#000000" transform="matrix(1.00, 0.00, -0.00, -1.00, 317.9, 49.0)">)</text><text xml:space="preserve" font-family="LucidaGrande" font-size="26.6" fill="#0BD0D9" transform="matrix(1.00, 0.00, -0.00, -1.00, 0.0, 8.4)">●</text><text xml:space="preserve" font-family="Palatino-Roman" font-size="28.0" fill="#000000" transform="matrix(1.00, 0.00, -0.00, -1.00, 15.0, 8.0)">H</text><text xml:space="preserve" font-family="Palatino-Roman" font-size="28.0" fill="#000000" transform="matrix(1.00, 0.00, -0.00, -1.00, 38.3, 8.0)">a</text><text xml:space="preserve" font-family="Palatino-Roman" font-size="28.0" fill="#000000" transform="matrix(1.00, 0.00, -0.00, -1.00, 52.3, 8.0)">r</text><text xml:space="preserve" font-family="Palatino-Roman" font-size="28.0" fill="#000000" transform="matrix(1.00, 0.00, -0.00, -1.00, 63.4, 8.0)">s</text><text xml:space="preserve" font-family="Palatino-Roman" font-size="28.0" fill="#000000" transform="matrix(1.00, 0.00, -0.00, -1.00, 75.2, 8.0)">h</text><text xml:space="preserve" font-family="Palatino-Roman" font-size="28.0" fill="#000000" transform="matrix(1.00, 0.00, -0.00, -1.00, 91.5, 8.0)">i</text><text xml:space="preserve" font-family="Palatino-Roman" font-size="28.0" fill="#000000" transform="matrix(1.00, 0.00, -0.00, -1.00, 99.7, 8.0)">l</text><text xml:space="preserve" font-family="Palatino-Roman" font-size="28.0" fill="#000000" transform="matrix(1.00, 0.00, -0.00, -1.00, 107.8, 8.0)"> </text><text xml:space="preserve" font-family="Palatino-Roman" font-size="28.0" fill="#000000" transform="matrix(1.00, 0.00, -0.00, -1.00, 114.8, 8.0)">S</text><text xml:space="preserve" font-family="Palatino-Roman" font-size="28.0" fill="#000000" transform="matrix(1.00, 0.00, -0.00, -1.00, 129.5, 8.0)">h</text><text xml:space="preserve" font-family="Palatino-Roman" font-size="28.0" fill="#000000" transform="matrix(1.00, 0.00, -0.00, -1.00, 145.8, 8.0)">a</text><text xml:space="preserve" font-family="Palatino-Roman" font-size="28.0" fill="#000000" transform="matrix(1.00, 0.00, -0.00, -1.00, 159.8, 8.0)">h</text><text xml:space="preserve" font-family="Palatino-Roman" font-size="28.0" fill="#000000" transform="matrix(1.00, 0.00, -0.00, -1.00, 176.1, 8.0)"> </text><text xml:space="preserve" font-family="Palatino-Roman" font-size="28.0" fill="#000000" transform="matrix(1.00, 0.00, -0.00, -1.00, 183.1, 8.0)">(</text><text xml:space="preserve" font-family="Palatino-Roman" font-size="28.0" fill="#000000" transform="matrix(1.00, 0.00, -0.00, -1.00, 192.4, 8.0)">2</text><text xml:space="preserve" font-family="Palatino-Roman" font-size="28.0" fill="#000000" transform="matrix(1.00, 0.00, -0.00, -1.00, 206.4, 8.0)">0</text><text xml:space="preserve" font-family="Palatino-Roman" font-size="28.0" fill="#000000" transform="matrix(1.00, 0.00, -0.00, -1.00, 220.4, 8.0)">1</text><text xml:space="preserve" font-family="Palatino-Roman" font-size="28.0" fill="#000000" transform="matrix(1.00, 0.00, -0.00, -1.00, 234.4, 8.0)">5</text><text xml:space="preserve" font-family="Palatino-Roman" font-size="28.0" fill="#000000" transform="matrix(1.00, 0.00, -0.00, -1.00, 248.4, 8.0)">0</text><text xml:space="preserve" font-family="Palatino-Roman" font-size="28.0" fill="#000000" transform="matrix(1.00, 0.00, -0.00, -1.00, 262.4, 8.0)">1</text><text xml:space="preserve" font-family="Palatino-Roman" font-size="28.0" fill="#000000" transform="matrix(1.00, 0.00, -0.00, -1.00, 276.4, 8.0)">0</text><text xml:space="preserve" font-family="Palatino-Roman" font-size="28.0" fill="#000000" transform="matrix(1.00, 0.00, -0.00, -1.00, 290.4, 8.0)">9</text><text xml:space="preserve" font-family="Palatino-Roman" font-size="28.0" fill="#000000" transform="matrix(1.00, 0.00, -0.00, -1.00, 304.4, 8.0)">7</text><text xml:space="preserve" font-family="Palatino-Roman" font-size="28.0" fill="#000000" transform="matrix(1.00, 0.00, -0.00, -1.00, 318.4, 8.0)">)</text></g></svg>