<?xml version="1.0" encoding="UTF-8"?><svg xmlns="http://www.w3.org/2000/svg" xmlns:xlink="http://www.w3.org/1999/xlink" clip-rule="evenodd" stroke-miterlimit="4.00" viewBox="0 0 482 482"><desc>SVG generated by Keynote</desc><defs></defs><g transform="matrix(1.00, 0.00, -0.00, -1.00, 0.0, 482.0)"><g><clipPath id="clip-8"><path d="M 6.6 240.8 L 6.6 240.8 C 6.6 370.4 111.7 475.4 241.3 475.4 L 241.3 475.4 C 370.9 475.4 475.9 370.4 475.9 240.8 L 475.9 240.8 C 475.9 111.2 370.9 6.1 241.3 6.1 L 241.3 6.1 C 111.7 6.1 6.6 111.2 6.6 240.8 Z M 6.6 240.8 "></path></clipPath><g clip-path="url(#clip-8)"><image xlink:href="6A9FE0FF932DFB03A6CD746EB59B5B52.png" width="864.00" height="575.00" transform="matrix(1.00, 0.00, -0.00, -1.00, -191.0, 511.0)"></image></g></g><path d="M 234.7 0.0 C 105.1 -0.0 0.0 105.1 0.0 234.7 C -0.0 364.3 105.1 469.3 234.7 469.3 C 364.3 469.3 469.3 364.3 469.3 234.7 C 469.3 105.1 364.3 0.0 234.7 0.0 Z M 234.7 0.0 " fill="none" stroke="#0094FF" stroke-width="10.00" transform="matrix(1.00, 0.00, 0.00, -1.00, 6.6, 475.4)"></path></g></svg>