<?xml version="1.0" encoding="UTF-8"?><svg xmlns="http://www.w3.org/2000/svg" xmlns:xlink="http://www.w3.org/1999/xlink" clip-rule="evenodd" stroke-miterlimit="4.00" viewBox="0 0 461 22"><desc>SVG generated by Keynote</desc><defs></defs><g transform="matrix(1.00, 0.00, -0.00, -1.00, 0.0, 22.0)"><text xml:space="preserve" font-family="HelveticaNeue-Light" font-size="20.0" fill="#000000" transform="matrix(1.00, 0.00, -0.00, -1.00, 2.0, 6.0)">T</text><text xml:space="preserve" font-family="HelveticaNeue-Light" font-size="20.0" fill="#000000" transform="matrix(1.00, 0.00, -0.00, -1.00, 13.1, 6.0)">h</text><text xml:space="preserve" font-family="HelveticaNeue-Light" font-size="20.0" fill="#000000" transform="matrix(1.00, 0.00, -0.00, -1.00, 23.9, 6.0)">i</text><text xml:space="preserve" font-family="HelveticaNeue-Light" font-size="20.0" fill="#000000" transform="matrix(1.00, 0.00, -0.00, -1.00, 27.6, 6.0)">s</text><text xml:space="preserve" font-family="HelveticaNeue-Light" font-size="20.0" fill="#000000" transform="matrix(1.00, 0.00, -0.00, -1.00, 37.2, 6.0)"> </text><text xml:space="preserve" font-family="HelveticaNeue-Light" font-size="20.0" fill="#000000" transform="matrix(1.00, 0.00, -0.00, -1.00, 42.7, 6.0)">g</text><text xml:space="preserve" font-family="HelveticaNeue-Light" font-size="20.0" fill="#000000" transform="matrix(1.00, 0.00, -0.00, -1.00, 53.9, 6.0)">a</text><text xml:space="preserve" font-family="HelveticaNeue-Light" font-size="20.0" fill="#000000" transform="matrix(1.00, 0.00, -0.00, -1.00, 64.2, 6.0)">m</text><text xml:space="preserve" font-family="HelveticaNeue-Light" font-size="20.0" fill="#000000" transform="matrix(1.00, 0.00, -0.00, -1.00, 80.9, 6.0)">e</text><text xml:space="preserve" font-family="HelveticaNeue-Light" font-size="20.0" fill="#000000" transform="matrix(1.00, 0.00, -0.00, -1.00, 91.3, 6.0)"> </text><text xml:space="preserve" font-family="HelveticaNeue-Light" font-size="20.0" fill="#000000" transform="matrix(1.00, 0.00, -0.00, -1.00, 96.8, 6.0)">h</text><text xml:space="preserve" font-family="HelveticaNeue-Light" font-size="20.0" fill="#000000" transform="matrix(1.00, 0.00, -0.00, -1.00, 107.6, 6.0)">a</text><text xml:space="preserve" font-family="HelveticaNeue-Light" font-size="20.0" fill="#000000" transform="matrix(1.00, 0.00, -0.00, -1.00, 118.0, 6.0)">s</text><text xml:space="preserve" font-family="HelveticaNeue-Light" font-size="20.0" fill="#000000" transform="matrix(1.00, 0.00, -0.00, -1.00, 127.6, 6.0)"> </text><text xml:space="preserve" font-family="HelveticaNeue-Light" font-size="20.0" fill="#000000" transform="matrix(1.00, 0.00, -0.00, -1.00, 133.1, 6.0)">p</text><text xml:space="preserve" font-family="HelveticaNeue-Light" font-size="20.0" fill="#000000" transform="matrix(1.00, 0.00, -0.00, -1.00, 144.6, 6.0)">o</text><text xml:space="preserve" font-family="HelveticaNeue-Light" font-size="20.0" fill="#000000" transform="matrix(1.00, 0.00, -0.00, -1.00, 155.7, 6.0)">t</text><text xml:space="preserve" font-family="HelveticaNeue-Light" font-size="20.0" fill="#000000" transform="matrix(1.00, 0.00, -0.00, -1.00, 161.7, 6.0)">e</text><text xml:space="preserve" font-family="HelveticaNeue-Light" font-size="20.0" fill="#000000" transform="matrix(1.00, 0.00, -0.00, -1.00, 172.0, 6.0)">n</text><text xml:space="preserve" font-family="HelveticaNeue-Light" font-size="20.0" fill="#000000" transform="matrix(1.00, 0.00, -0.00, -1.00, 182.8, 6.0)">t</text><text xml:space="preserve" font-family="HelveticaNeue-Light" font-size="20.0" fill="#000000" transform="matrix(1.00, 0.00, -0.00, -1.00, 188.7, 6.0)">i</text><text xml:space="preserve" font-family="HelveticaNeue-Light" font-size="20.0" fill="#000000" transform="matrix(1.00, 0.00, -0.00, -1.00, 192.4, 6.0)">a</text><text xml:space="preserve" font-family="HelveticaNeue-Light" font-size="20.0" fill="#000000" transform="matrix(1.00, 0.00, -0.00, -1.00, 202.8, 6.0)">l</text><text xml:space="preserve" font-family="HelveticaNeue-Light" font-size="20.0" fill="#000000" transform="matrix(1.00, 0.00, -0.00, -1.00, 206.5, 6.0)"> </text><text xml:space="preserve" font-family="HelveticaNeue-Light" font-size="20.0" fill="#000000" transform="matrix(1.00, 0.00, -0.00, -1.00, 212.0, 6.0)">t</text><text xml:space="preserve" font-family="HelveticaNeue-Light" font-size="20.0" fill="#000000" transform="matrix(1.00, 0.00, -0.00, -1.00, 218.0, 6.0)">o</text><text xml:space="preserve" font-family="HelveticaNeue-Light" font-size="20.0" fill="#000000" transform="matrix(1.00, 0.00, -0.00, -1.00, 229.1, 6.0)"> </text><text xml:space="preserve" font-family="HelveticaNeue-Light" font-size="20.0" fill="#000000" transform="matrix(1.00, 0.00, -0.00, -1.00, 234.6, 6.0)">b</text><text xml:space="preserve" font-family="HelveticaNeue-Light" font-size="20.0" fill="#000000" transform="matrix(1.00, 0.00, -0.00, -1.00, 246.1, 6.0)">e</text><text xml:space="preserve" font-family="HelveticaNeue-Light" font-size="20.0" fill="#000000" transform="matrix(1.00, 0.00, -0.00, -1.00, 256.5, 6.0)"> </text><text xml:space="preserve" font-family="HelveticaNeue-Light" font-size="20.0" fill="#000000" transform="matrix(1.00, 0.00, -0.00, -1.00, 262.1, 6.0)">A</text><text xml:space="preserve" font-family="HelveticaNeue-Light" font-size="20.0" fill="#000000" transform="matrix(1.00, 0.00, -0.00, -1.00, 274.7, 6.0)">d</text><text xml:space="preserve" font-family="HelveticaNeue-Light" font-size="20.0" fill="#000000" transform="matrix(1.00, 0.00, -0.00, -1.00, 286.1, 6.0)">d</text><text xml:space="preserve" font-family="HelveticaNeue-Light" font-size="20.0" fill="#000000" transform="matrix(1.00, 0.00, -0.00, -1.00, 297.6, 6.0)">i</text><text xml:space="preserve" font-family="HelveticaNeue-Light" font-size="20.0" fill="#000000" transform="matrix(1.00, 0.00, -0.00, -1.00, 301.3, 6.0)">c</text><text xml:space="preserve" font-family="HelveticaNeue-Light" font-size="20.0" fill="#000000" transform="matrix(1.00, 0.00, -0.00, -1.00, 311.7, 6.0)">t</text><text xml:space="preserve" font-family="HelveticaNeue-Light" font-size="20.0" fill="#000000" transform="matrix(1.00, 0.00, -0.00, -1.00, 317.6, 6.0)">i</text><text xml:space="preserve" font-family="HelveticaNeue-Light" font-size="20.0" fill="#000000" transform="matrix(1.00, 0.00, -0.00, -1.00, 321.3, 6.0)">o</text><text xml:space="preserve" font-family="HelveticaNeue-Light" font-size="20.0" fill="#000000" transform="matrix(1.00, 0.00, -0.00, -1.00, 332.4, 6.0)">n</text><text xml:space="preserve" font-family="HelveticaNeue-Light" font-size="20.0" fill="#000000" transform="matrix(1.00, 0.00, -0.00, -1.00, 343.2, 6.0)"> </text><text xml:space="preserve" font-family="HelveticaNeue-Light" font-size="20.0" fill="#000000" transform="matrix(1.00, 0.00, -0.00, -1.00, 348.7, 6.0)">f</text><text xml:space="preserve" font-family="HelveticaNeue-Light" font-size="20.0" fill="#000000" transform="matrix(1.00, 0.00, -0.00, -1.00, 353.9, 6.0)">o</text><text xml:space="preserve" font-family="HelveticaNeue-Light" font-size="20.0" fill="#000000" transform="matrix(1.00, 0.00, -0.00, -1.00, 365.0, 6.0)">r</text><text xml:space="preserve" font-family="HelveticaNeue-Light" font-size="20.0" fill="#000000" transform="matrix(1.00, 0.00, -0.00, -1.00, 371.3, 6.0)"> </text><text xml:space="preserve" font-family="HelveticaNeue-Light" font-size="20.0" fill="#000000" transform="matrix(1.00, 0.00, -0.00, -1.00, 376.9, 6.0)">E</text><text xml:space="preserve" font-family="HelveticaNeue-Light" font-size="20.0" fill="#000000" transform="matrix(1.00, 0.00, -0.00, -1.00, 388.8, 6.0)">v</text><text xml:space="preserve" font-family="HelveticaNeue-Light" font-size="20.0" fill="#000000" transform="matrix(1.00, 0.00, -0.00, -1.00, 398.0, 6.0)">e</text><text xml:space="preserve" font-family="HelveticaNeue-Light" font-size="20.0" fill="#000000" transform="matrix(1.00, 0.00, -0.00, -1.00, 408.4, 6.0)">r</text><text xml:space="preserve" font-family="HelveticaNeue-Light" font-size="20.0" fill="#000000" transform="matrix(1.00, 0.00, -0.00, -1.00, 414.7, 6.0)">y</text><text xml:space="preserve" font-family="HelveticaNeue-Light" font-size="20.0" fill="#000000" transform="matrix(1.00, 0.00, -0.00, -1.00, 424.0, 6.0)">o</text><text xml:space="preserve" font-family="HelveticaNeue-Light" font-size="20.0" fill="#000000" transform="matrix(1.00, 0.00, -0.00, -1.00, 435.1, 6.0)">n</text><text xml:space="preserve" font-family="HelveticaNeue-Light" font-size="20.0" fill="#000000" transform="matrix(1.00, 0.00, -0.00, -1.00, 445.8, 6.0)">e</text><text xml:space="preserve" font-family="HelveticaNeue-Light" font-size="20.0" fill="#000000" transform="matrix(1.00, 0.00, -0.00, -1.00, 456.2, 6.0)">,</text></g></svg>